<svg width="35" height="14" viewBox="0 0 35 14" fill="none" xmlns="http://www.w3.org/2000/svg">
<path d="M33.7736 7.42544H0.779977C0.54598 7.42544 0.350983 7.23207 0.350983 7.00003C0.350983 6.76799 0.54598 6.57462 0.779977 6.57462H33.7736C34.0076 6.57462 34.2026 6.76799 34.2026 7.00003C34.2026 7.23207 34.0076 7.42544 33.7736 7.42544Z" fill="#FB6E01"/>
<path d="M33.9294 7.30939C33.8358 7.30939 33.75 7.27845 33.6798 7.20884L27.2449 0.827627C27.1045 0.688401 27.1045 0.471826 27.2449 0.3326C27.3853 0.193373 27.6037 0.193373 27.7441 0.3326L34.179 6.71381C34.3194 6.85304 34.3194 7.06961 34.179 7.20884C34.1088 7.27845 34.023 7.30939 33.9294 7.30939Z" fill="#FB6E01"/>
<path d="M27.518 13.7138C27.4244 13.7138 27.3386 13.6829 27.2684 13.6133C27.128 13.474 27.128 13.2575 27.2684 13.1182L33.6799 6.75249C33.8203 6.61326 34.0387 6.61326 34.1791 6.75249C34.3195 6.89172 34.3195 7.10829 34.1791 7.24752L27.7676 13.6133C27.6974 13.6829 27.6116 13.7138 27.518 13.7138Z" fill="#FB6E01"/>
</svg>
