<svg width="7" height="7" viewBox="0 0 7 7" fill="none" xmlns="http://www.w3.org/2000/svg">
<g clip-path="url(#clip0)">
<path d="M3.77314 5.44463L6.88817 2.32954C6.96028 2.25749 7 2.16131 7 2.05876C7 1.95621 6.96028 1.86003 6.88817 1.78798L6.65882 1.55858C6.50938 1.4093 6.26649 1.4093 6.11727 1.55858L3.50145 4.1744L0.882734 1.55568C0.810628 1.48363 0.714507 1.44385 0.612012 1.44385C0.509403 1.44385 0.413282 1.48363 0.34112 1.55568L0.111829 1.78508C0.0397243 1.85719 9.31405e-07 1.95331 9.26922e-07 2.05586C9.2244e-07 2.15841 0.0397243 2.25459 0.111829 2.32664L3.22971 5.44463C3.30204 5.51685 3.39861 5.55651 3.50128 5.55629C3.60434 5.55651 3.70086 5.51685 3.77314 5.44463Z" fill="#FB6E01"/>
</g>
<defs>
<clipPath id="clip0">
<rect width="7" height="7" fill="white" transform="translate(7) rotate(90)"/>
</clipPath>
</defs>
</svg>
