<svg width="21" height="21" viewBox="0 0 21 21" fill="none" xmlns="http://www.w3.org/2000/svg">
<g clip-path="url(#clip0)">
<path d="M17.9887 12.4812C17.2613 11.754 16.0772 11.754 15.3498 12.4812L13.6355 14.195C13.6012 14.2294 13.5538 14.2448 13.5088 14.2371C11.2578 13.8492 9.7592 12.6293 9.06674 11.9364C7.4597 10.3297 6.93606 8.46609 6.76665 7.49844C6.75836 7.45106 6.77376 7.4025 6.80811 7.36874L8.52237 5.65492C9.24682 4.93717 9.23793 3.72494 8.52237 3.01667L6.0505 0.545416C5.32309 -0.181805 4.13898 -0.181805 3.41158 0.545416L1.47992 2.47658C0.114554 3.8416 -0.356364 5.89535 0.280412 7.70867C1.35079 10.7573 3.0384 13.4483 5.29703 15.7057C6.62745 17.0358 8.1332 18.1835 9.77223 19.1168C9.98548 19.2382 10.2568 19.1636 10.3782 18.9504C10.4996 18.7372 10.425 18.466 10.2118 18.3446C8.64144 17.4509 7.19906 16.3518 5.92492 15.0774C3.76166 12.9147 2.14454 10.3368 1.11859 7.41434C0.594358 5.92141 0.98294 4.23008 2.10841 3.1049L4.04006 1.17374C4.41442 0.794732 5.04706 0.795325 5.42261 1.17374L7.89389 3.6444C8.27477 4.02518 8.27477 4.64522 7.89389 5.02659L6.17963 6.74042C5.94091 6.97908 5.8331 7.31959 5.89115 7.65122C6.07834 8.72251 6.65884 10.7851 8.43826 12.5647C9.20595 13.3322 10.8651 14.683 13.3583 15.1124C13.6877 15.1686 14.0265 15.0608 14.264 14.8228L15.9783 13.1089C16.3592 12.7282 16.9794 12.7276 17.3608 13.1089L19.8321 15.5796C20.2083 15.9515 20.2106 16.5875 19.8321 16.9618L17.9005 18.893C16.775 20.0181 15.0832 20.406 13.5899 19.8825C13.0604 19.6966 12.532 19.4869 12.019 19.2583C11.7951 19.1583 11.5321 19.2595 11.4326 19.4834C11.3325 19.7072 11.4332 19.9702 11.6577 20.0697C12.1926 20.3077 12.7441 20.5268 13.2961 20.7211C15.101 21.3547 17.1606 20.8904 18.5295 19.5219L20.4612 17.5907C21.1856 16.873 21.1768 15.6607 20.4612 14.9525L17.9887 12.4812Z" fill="#FB6E01"/>
</g>
<defs>
<clipPath id="clip0">
<rect width="21" height="21" fill="white"/>
</clipPath>
</defs>
</svg>
