<svg width="13" height="23" viewBox="0 0 13 23" fill="none" xmlns="http://www.w3.org/2000/svg">
<path d="M9.62646 4.9998H11.7243C12.1735 4.9998 12.5374 4.63594 12.5374 4.18672V0.817578C12.5374 0.368359 12.1735 0.00449219 11.7243 0.00449219H8.84482C8.81787 0 8.76846 0 8.70107 0C8.15752 0 6.2708 0.107812 4.77041 1.48691C3.13525 2.9918 3.29248 4.79316 3.35986 5.2334V7.42559H1.27549C0.826269 7.42559 0.462402 7.78945 0.462402 8.23867V11.8594C0.462402 12.3086 0.826269 12.6725 1.27549 12.6725H3.23857V22.1779C3.23857 22.6271 3.60244 22.991 4.05166 22.991H8.15752C8.60674 22.991 8.9706 22.6271 8.9706 22.1779V12.7264H11.2931C11.7063 12.7264 12.0567 12.4164 12.1017 12.0031L12.5239 8.33301C12.5509 8.10391 12.479 7.87031 12.3218 7.69961C12.169 7.52441 11.9444 7.42559 11.7153 7.42559H8.96611V5.58379C8.9751 5.20645 9.07842 4.9998 9.62646 4.9998ZM8.51689 8.34199H11.6075L11.2077 11.8055H8.51689C8.26533 11.8055 8.05869 12.0121 8.05869 12.2637V22.0791H4.15947V12.2188C4.15947 11.9672 3.95283 11.7605 3.70127 11.7605H1.37881V8.34199H3.81807C4.06963 8.34199 4.27627 8.13535 4.27627 7.88379V5.19297C4.27627 5.16602 4.27178 5.13906 4.27178 5.1166C4.22236 4.83809 4.05166 3.3916 5.39033 2.16074C6.64365 1.00625 8.23838 0.916406 8.70107 0.916406C8.76396 0.916406 8.80439 0.916406 8.80889 0.916406C8.81787 0.916406 8.82236 0.916406 8.83135 0.916406H11.6165V4.07891H9.62197C8.63818 4.07891 8.0542 4.64043 8.0542 5.58379V7.88379C8.05869 8.13984 8.26084 8.34199 8.51689 8.34199Z" fill="#FB6E01"/>
</svg>
