<svg width="40" height="40" viewBox="0 0 40 40" fill="none" xmlns="http://www.w3.org/2000/svg">
<path d="M13.2273 36.1027H11.6543C11.5109 36.1027 11.3735 36.0457 11.2721 35.9444C11.1707 35.843 11.1138 35.7055 11.1138 35.5621C11.1138 35.4188 11.1707 35.2813 11.2721 35.1799C11.3735 35.0786 11.5109 35.0216 11.6543 35.0216H13.2273C13.3706 35.0216 13.5081 35.0786 13.6095 35.1799C13.7109 35.2813 13.7678 35.4188 13.7678 35.5621C13.7678 35.7055 13.7109 35.843 13.6095 35.9444C13.5081 36.0457 13.3706 36.1027 13.2273 36.1027Z" fill="white"/>
<path d="M28.4594 36.1027H22.4C22.2566 36.1027 22.1191 36.0458 22.0178 35.9444C21.9164 35.8431 21.8594 35.7056 21.8594 35.5622C21.8594 35.4188 21.9164 35.2814 22.0178 35.18C22.1191 35.0786 22.2566 35.0217 22.4 35.0217H28.4594C28.7912 35.0221 29.1096 34.8909 29.3447 34.6567C29.5799 34.4226 29.7125 34.1048 29.7135 33.773V19.4271C29.7132 19.0945 29.581 18.7757 29.3459 18.5406C29.1107 18.3055 28.7919 18.1733 28.4594 18.173H3.41619C3.08373 18.1734 2.765 18.3057 2.52991 18.5408C2.29483 18.7759 2.16256 19.0946 2.16214 19.4271V33.773C2.16328 34.1048 2.29594 34.4225 2.53103 34.6566C2.76612 34.8907 3.08444 35.022 3.41619 35.0217H7.87024C8.0136 35.0217 8.15109 35.0786 8.25246 35.18C8.35383 35.2814 8.41078 35.4188 8.41078 35.5622C8.41078 35.7056 8.35383 35.8431 8.25246 35.9444C8.15109 36.0458 8.0136 36.1027 7.87024 36.1027H3.41619C2.79781 36.1027 2.20468 35.8575 1.76691 35.4207C1.32914 34.984 1.08249 34.3914 1.08105 33.773V19.4271C1.08177 18.808 1.32802 18.2144 1.76579 17.7767C2.20356 17.3389 2.79709 17.0926 3.41619 17.0919H28.4594C29.0785 17.0926 29.6721 17.3389 30.1098 17.7767C30.5476 18.2144 30.7939 18.808 30.7946 19.4271V33.773C30.7931 34.3914 30.5465 34.984 30.1087 35.4207C29.6709 35.8575 29.0778 36.1027 28.4594 36.1027Z" fill="white"/>
<path d="M18.6162 36.1027H17.0108C16.8674 36.1027 16.7299 36.0457 16.6285 35.9444C16.5272 35.843 16.4702 35.7055 16.4702 35.5621C16.4702 35.4188 16.5272 35.2813 16.6285 35.1799C16.7299 35.0786 16.8674 35.0216 17.0108 35.0216H18.6162C18.7595 35.0216 18.897 35.0786 18.9984 35.1799C19.0998 35.2813 19.1567 35.4188 19.1567 35.5621C19.1567 35.7055 19.0998 35.843 18.9984 35.9444C18.897 36.0457 18.7595 36.1027 18.6162 36.1027Z" fill="white"/>
<path d="M35.2406 34.713C35.1661 34.7127 35.0926 34.6973 35.0243 34.6676L30.0362 32.4735C29.94 32.4315 29.858 32.3624 29.8004 32.2745C29.7428 32.1867 29.7121 32.084 29.7119 31.9789V21.2222C29.7121 21.1171 29.7428 21.0144 29.8004 20.9266C29.858 20.8387 29.94 20.7696 30.0362 20.7276L35.0243 18.5335C35.1066 18.4976 35.1965 18.4828 35.2859 18.4903C35.3753 18.4978 35.4614 18.5275 35.5365 18.5766C35.6116 18.6257 35.6733 18.6928 35.716 18.7717C35.7587 18.8506 35.7811 18.9389 35.7811 19.0287V34.1724C35.7811 34.3158 35.7241 34.4533 35.6228 34.5547C35.5214 34.656 35.3839 34.713 35.2406 34.713ZM30.7935 31.626L34.7 33.3443V19.8552L30.7935 21.5735V31.626Z" fill="white"/>
<path d="M38.3781 34.7129H35.2402C35.0969 34.7129 34.9594 34.656 34.858 34.5546C34.7567 34.4532 34.6997 34.3158 34.6997 34.1724V19.027C34.6997 18.8836 34.7567 18.7461 34.858 18.6448C34.9594 18.5434 35.0969 18.4865 35.2402 18.4865H38.3781C38.5214 18.4865 38.6589 18.5434 38.7603 18.6448C38.8617 18.7461 38.9186 18.8836 38.9186 19.027V34.1724C38.9186 34.3158 38.8617 34.4532 38.7603 34.5546C38.6589 34.656 38.5214 34.7129 38.3781 34.7129ZM35.7808 33.6319H37.8375V19.5675H35.7808V33.6319Z" fill="white"/>
<path d="M19.7206 18.1291C18.3843 18.1291 17.0779 17.7328 15.9668 16.9904C14.8556 16.248 13.9896 15.1927 13.4782 13.9581C12.9668 12.7234 12.833 11.3649 13.0937 10.0542C13.3544 8.7435 13.9979 7.53956 14.9429 6.59461C15.8878 5.64966 17.0918 5.00614 18.4024 4.74543C19.7131 4.48472 21.0717 4.61853 22.3063 5.12993C23.541 5.64133 24.5962 6.50736 25.3387 7.61851C26.0811 8.72965 26.4774 10.036 26.4774 11.3724C26.4752 13.1637 25.7627 14.8811 24.496 16.1477C23.2293 17.4144 21.512 18.127 19.7206 18.1291ZM19.7206 5.69668C18.5981 5.69668 17.5008 6.02956 16.5674 6.65321C15.634 7.27686 14.9066 8.16328 14.477 9.20037C14.0474 10.2375 13.935 11.3787 14.154 12.4796C14.373 13.5806 14.9136 14.5919 15.7073 15.3857C16.5011 16.1794 17.5124 16.72 18.6134 16.939C19.7143 17.158 20.8555 17.0456 21.8926 16.616C22.9297 16.1864 23.8161 15.459 24.4398 14.5256C25.0634 13.5922 25.3963 12.4949 25.3963 11.3724C25.3946 9.8676 24.7961 8.42497 23.732 7.36095C22.668 6.29692 21.2254 5.6984 19.7206 5.69668Z" fill="white"/>
<path d="M9.85594 18.1292C8.97395 18.1292 8.11176 17.8677 7.3784 17.3777C6.64505 16.8877 6.07347 16.1912 5.73594 15.3763C5.39842 14.5615 5.3101 13.6648 5.48217 12.7998C5.65424 11.9347 6.07896 11.1401 6.70263 10.5165C7.3263 9.89281 8.1209 9.46809 8.98595 9.29602C9.851 9.12395 10.7476 9.21226 11.5625 9.54979C12.3774 9.88731 13.0738 10.4589 13.5638 11.1922C14.0539 11.9256 14.3154 12.7878 14.3154 13.6698C14.3138 14.852 13.8435 15.9854 13.0075 16.8214C12.1715 17.6573 11.0382 18.1277 9.85594 18.1292ZM9.85594 10.2914C9.18776 10.2914 8.53459 10.4895 7.97902 10.8608C7.42345 11.232 6.99043 11.7596 6.73473 12.3769C6.47903 12.9943 6.41213 13.6735 6.54248 14.3289C6.67284 14.9842 6.9946 15.5862 7.46707 16.0587C7.93954 16.5311 8.54151 16.8529 9.19685 16.9833C9.85219 17.1136 10.5315 17.0467 11.1488 16.791C11.7661 16.5353 12.2937 16.1023 12.665 15.5467C13.0362 14.9911 13.2343 14.338 13.2343 13.6698C13.2333 12.7741 12.8771 11.9154 12.2437 11.282C11.6104 10.6487 10.7516 10.2924 9.85594 10.2914Z" fill="white"/>
<path d="M24.5949 25.3514H16.4868C16.3435 25.3514 16.206 25.2944 16.1046 25.1931C16.0032 25.0917 15.9463 24.9542 15.9463 24.8109V21.3406C15.9463 21.1972 16.0032 21.0597 16.1046 20.9584C16.206 20.857 16.3435 20.8 16.4868 20.8H24.5949C24.7383 20.8 24.8758 20.857 24.9771 20.9584C25.0785 21.0597 25.1355 21.1972 25.1355 21.3406V24.8109C25.1355 24.9542 25.0785 25.0917 24.9771 25.1931C24.8758 25.2944 24.7383 25.3514 24.5949 25.3514ZM17.0274 24.2703H24.0544V21.8811H17.0274V24.2703Z" fill="white"/>
</svg>
