<svg width="40" height="40" viewBox="0 0 40 40" fill="none" xmlns="http://www.w3.org/2000/svg">
<path d="M25.643 6.75674H24.0376C23.8942 6.75674 23.7568 6.69979 23.6554 6.59842C23.554 6.49705 23.4971 6.35956 23.4971 6.2162C23.4971 6.07284 23.554 5.93535 23.6554 5.83398C23.7568 5.73261 23.8942 5.67566 24.0376 5.67566H25.643C25.7864 5.67566 25.9239 5.73261 26.0252 5.83398C26.1266 5.93535 26.1835 6.07284 26.1835 6.2162C26.1835 6.35956 26.1266 6.49705 26.0252 6.59842C25.9239 6.69979 25.7864 6.75674 25.643 6.75674Z" fill="white"/>
<path d="M36.2162 34.3243H3.78376C3.06722 34.3234 2.38028 34.0384 1.87361 33.5318C1.36694 33.0251 1.08191 32.3381 1.08105 31.6216V8.37836C1.08191 7.66182 1.36694 6.97488 1.87361 6.46821C2.38028 5.96154 3.06722 5.67652 3.78376 5.67566H14.8973C15.0406 5.67566 15.1781 5.73261 15.2795 5.83398C15.3809 5.93535 15.4378 6.07284 15.4378 6.2162C15.4378 6.35956 15.3809 6.49705 15.2795 6.59842C15.1781 6.69979 15.0406 6.75674 14.8973 6.75674H3.78376C3.35368 6.75674 2.94121 6.92759 2.6371 7.2317C2.33298 7.53582 2.16214 7.94828 2.16214 8.37836V31.6216C2.16214 32.0517 2.33298 32.4641 2.6371 32.7683C2.94121 33.0724 3.35368 33.2432 3.78376 33.2432H36.2162C36.6463 33.2432 37.0587 33.0724 37.3629 32.7683C37.667 32.4641 37.8378 32.0517 37.8378 31.6216V8.37836C37.8378 7.94828 37.667 7.53582 37.3629 7.2317C37.0587 6.92759 36.6463 6.75674 36.2162 6.75674H29.427C29.2836 6.75674 29.1462 6.69979 29.0448 6.59842C28.9434 6.49705 28.8865 6.35956 28.8865 6.2162C28.8865 6.07284 28.9434 5.93535 29.0448 5.83398C29.1462 5.73261 29.2836 5.67566 29.427 5.67566H36.2162C36.9327 5.67652 37.6197 5.96154 38.1263 6.46821C38.633 6.97488 38.918 7.66182 38.9189 8.37836V31.6216C38.918 32.3381 38.633 33.0251 38.1263 33.5318C37.6197 34.0384 36.9327 34.3234 36.2162 34.3243Z" fill="white"/>
<path d="M20.2539 6.75674H18.6809C18.5376 6.75674 18.4001 6.69979 18.2987 6.59842C18.1973 6.49705 18.1404 6.35956 18.1404 6.2162C18.1404 6.07284 18.1973 5.93535 18.2987 5.83398C18.4001 5.73261 18.5376 5.67566 18.6809 5.67566H20.2539C20.3973 5.67566 20.5347 5.73261 20.6361 5.83398C20.7375 5.93535 20.7944 6.07284 20.7944 6.2162C20.7944 6.35956 20.7375 6.49705 20.6361 6.59842C20.5347 6.69979 20.3973 6.75674 20.2539 6.75674Z" fill="white"/>
<path d="M38.3783 25.6757H1.6216C1.47823 25.6757 1.34075 25.6187 1.23938 25.5174C1.138 25.416 1.08105 25.2785 1.08105 25.1351C1.08105 24.9918 1.138 24.8543 1.23938 24.7529C1.34075 24.6516 1.47823 24.5946 1.6216 24.5946H38.3783C38.5217 24.5946 38.6592 24.6516 38.7606 24.7529C38.8619 24.8543 38.9189 24.9918 38.9189 25.1351C38.9189 25.2785 38.8619 25.416 38.7606 25.5174C38.6592 25.6187 38.5217 25.6757 38.3783 25.6757Z" fill="white"/>
<path d="M34.054 30H10.8108C10.6674 30 10.53 29.9431 10.4286 29.8417C10.3272 29.7403 10.2703 29.6029 10.2703 29.4595C10.2703 29.3161 10.3272 29.1786 10.4286 29.0773C10.53 28.9759 10.6674 28.9189 10.8108 28.9189H34.054C34.1974 28.9189 34.3349 28.9759 34.4363 29.0773C34.5376 29.1786 34.5946 29.3161 34.5946 29.4595C34.5946 29.6029 34.5376 29.7403 34.4363 29.8417C34.3349 29.9431 34.1974 30 34.054 30Z" fill="white"/>
<path d="M8.68095 30H5.94581C5.80245 30 5.66497 29.9431 5.56359 29.8417C5.46222 29.7403 5.40527 29.6029 5.40527 29.4595C5.40527 29.3161 5.46222 29.1786 5.56359 29.0773C5.66497 28.9759 5.80245 28.9189 5.94581 28.9189H8.68095C8.82431 28.9189 8.9618 28.9759 9.06317 29.0773C9.16454 29.1786 9.22149 29.3161 9.22149 29.4595C9.22149 29.6029 9.16454 29.7403 9.06317 29.8417C8.9618 29.9431 8.82431 30 8.68095 30Z" fill="white"/>
<path d="M9.74647 32.1789C9.32101 32.1783 8.91314 32.0091 8.61229 31.7082C8.31144 31.4074 8.14217 30.9995 8.1416 30.574V28.3449C8.1416 27.9192 8.31069 27.511 8.61166 27.21C8.91263 26.9091 9.32083 26.74 9.74647 26.74C10.1721 26.74 10.5803 26.9091 10.8813 27.21C11.1823 27.511 11.3513 27.9192 11.3513 28.3449V30.574C11.3509 30.9996 11.1817 31.4075 10.8808 31.7084C10.5799 32.0093 10.172 32.1785 9.74647 32.1789ZM9.74647 27.8211C9.6076 27.8212 9.47445 27.8764 9.37626 27.9746C9.27806 28.0728 9.22283 28.206 9.22269 28.3449V30.574C9.22269 30.713 9.27787 30.8462 9.3761 30.9444C9.47433 31.0426 9.60755 31.0978 9.74647 31.0978C9.88539 31.0978 10.0186 31.0426 10.1168 30.9444C10.2151 30.8462 10.2703 30.713 10.2703 30.574V28.3449C10.2701 28.206 10.2149 28.0728 10.1167 27.9746C10.0185 27.8764 9.88534 27.8212 9.74647 27.8211Z" fill="white"/>
<path d="M18.1117 20.173C17.6809 20.1723 17.2679 20.0008 16.9632 19.6961C16.6585 19.3915 16.487 18.9784 16.4863 18.5476V12.8038C16.4864 12.5013 16.5709 12.2049 16.7303 11.9479C16.8897 11.6909 17.1177 11.4835 17.3886 11.349C17.6595 11.2146 17.9626 11.1584 18.2637 11.1869C18.5648 11.2154 18.8519 11.3274 19.0928 11.5103L22.8728 14.3827C23.0721 14.5342 23.2337 14.7298 23.3449 14.9541C23.4561 15.1784 23.514 15.4253 23.514 15.6757C23.514 15.926 23.4561 16.173 23.3449 16.3973C23.2337 16.6216 23.0721 16.8171 22.8728 16.9687L19.0934 19.8411C18.8113 20.0561 18.4664 20.1727 18.1117 20.173ZM18.1117 12.2589C18.0271 12.2593 17.9436 12.2793 17.868 12.3173C17.7767 12.3614 17.6999 12.4306 17.6465 12.5167C17.5931 12.6029 17.5653 12.7024 17.5663 12.8038V18.5476C17.5653 18.6492 17.593 18.749 17.6461 18.8356C17.6992 18.9222 17.7757 18.9921 17.8667 19.0372C17.9577 19.0823 18.0596 19.1009 18.1607 19.0908C18.2618 19.0807 18.358 19.0423 18.4382 18.98L22.2161 16.1081C22.2827 16.0574 22.3368 15.992 22.374 15.917C22.4111 15.842 22.4305 15.7594 22.4305 15.6757C22.4305 15.5919 22.4111 15.5094 22.374 15.4343C22.3368 15.3593 22.2827 15.2939 22.2161 15.2432L18.4361 12.3713C18.3433 12.2995 18.2296 12.26 18.1123 12.2589H18.1117Z" fill="white"/>
</svg>
