<svg width="38" height="38" viewBox="0 0 38 38" fill="none" xmlns="http://www.w3.org/2000/svg">
<path d="M15.0046 36.973H13.5155C13.3793 36.973 13.2487 36.9189 13.1524 36.8226C13.0561 36.7263 13.002 36.5956 13.002 36.4594C13.002 36.3232 13.0561 36.1926 13.1524 36.0963C13.2487 36 13.3793 35.9459 13.5155 35.9459H15.0046C15.1408 35.9459 15.2715 36 15.3678 36.0963C15.4641 36.1926 15.5182 36.3232 15.5182 36.4594C15.5182 36.5956 15.4641 36.7263 15.3678 36.8226C15.2715 36.9189 15.1408 36.973 15.0046 36.973Z" fill="white"/>
<path d="M34.3591 36.9729H23.7191C23.5829 36.9729 23.4523 36.9188 23.356 36.8225C23.2597 36.7262 23.2056 36.5956 23.2056 36.4594C23.2056 36.3232 23.2597 36.1926 23.356 36.0963C23.4523 36 23.5829 35.9459 23.7191 35.9459H34.3591C34.4966 35.9458 34.6284 35.8911 34.7257 35.7939C34.8229 35.6966 34.8776 35.5648 34.8777 35.4273V18.8921H4.15935V35.4273C4.15881 35.5641 4.21257 35.6956 4.30884 35.7928C4.40512 35.89 4.53603 35.9451 4.67287 35.9459H9.92097C10.0572 35.9459 10.1878 36 10.2841 36.0963C10.3804 36.1926 10.4345 36.3232 10.4345 36.4594C10.4345 36.5956 10.3804 36.7262 10.2841 36.8225C10.1878 36.9188 10.0572 36.9729 9.92097 36.9729H4.67287C4.26373 36.9719 3.87175 36.8085 3.58293 36.5187C3.29411 36.2289 3.13205 35.8364 3.13232 35.4273V18.3786C3.13232 18.2424 3.18643 18.1118 3.28273 18.0155C3.37903 17.9192 3.50965 17.8651 3.64584 17.8651H35.3913C35.5274 17.8651 35.6581 17.9192 35.7544 18.0155C35.8507 18.1118 35.9048 18.2424 35.9048 18.3786V35.4273C35.9044 35.8371 35.7414 36.23 35.4516 36.5198C35.1618 36.8096 34.7689 36.9725 34.3591 36.9729Z" fill="white"/>
<path d="M20.1246 36.973H18.5994C18.4633 36.973 18.3326 36.9189 18.2363 36.8226C18.14 36.7263 18.0859 36.5956 18.0859 36.4594C18.0859 36.3232 18.14 36.1926 18.2363 36.0963C18.3326 36 18.4633 35.9459 18.5994 35.9459H20.1246C20.2608 35.9459 20.3914 36 20.4877 36.0963C20.584 36.1926 20.6381 36.3232 20.6381 36.4594C20.6381 36.5956 20.584 36.7263 20.4877 36.8226C20.3914 36.9189 20.2608 36.973 20.1246 36.973Z" fill="white"/>
<path d="M35.3913 18.8927H3.64584C3.50965 18.8927 3.37903 18.8386 3.28273 18.7423C3.18643 18.646 3.13232 18.5153 3.13232 18.3791V13.9439C3.13232 13.8077 3.18643 13.6771 3.28273 13.5808C3.37903 13.4845 3.50965 13.4304 3.64584 13.4304H34.8762C35.1483 13.4312 35.4091 13.5397 35.6015 13.7321C35.7939 13.9246 35.9024 14.1853 35.9032 14.4574V18.3776C35.9034 18.445 35.8903 18.5119 35.8647 18.5742C35.8391 18.6366 35.8014 18.6933 35.7539 18.7412C35.7064 18.789 35.6499 18.827 35.5876 18.853C35.5254 18.879 35.4587 18.8925 35.3913 18.8927ZM4.1573 17.8656H34.8777V14.458H4.15935L4.1573 17.8656Z" fill="white"/>
<path d="M28.8549 18.8933C28.7699 18.8934 28.6863 18.8724 28.6115 18.8322C28.5366 18.7921 28.4729 18.734 28.4261 18.6631C28.3792 18.5923 28.3506 18.5109 28.3429 18.4264C28.3352 18.3418 28.3486 18.2566 28.3819 18.1785L30.249 13.7433C30.2752 13.6811 30.3134 13.6247 30.3613 13.5772C30.4093 13.5298 30.4661 13.4923 30.5286 13.4668C30.5911 13.4414 30.6579 13.4285 30.7254 13.4288C30.7929 13.4292 30.8596 13.4429 30.9218 13.469C30.9839 13.4952 31.0403 13.5334 31.0878 13.5813C31.1352 13.6293 31.1727 13.6861 31.1982 13.7486C31.2236 13.8111 31.2366 13.8779 31.2362 13.9454C31.2358 14.0129 31.2221 14.0796 31.196 14.1418L29.3283 18.577C29.2894 18.6705 29.2237 18.7505 29.1395 18.8068C29.0552 18.863 28.9562 18.8932 28.8549 18.8933Z" fill="white"/>
<path d="M23.7194 18.8932C23.6347 18.8932 23.5513 18.8722 23.4766 18.8321C23.402 18.792 23.3384 18.7341 23.2916 18.6635C23.2448 18.5929 23.2161 18.5117 23.2083 18.4274C23.2004 18.343 23.2135 18.258 23.2465 18.1799L25.1136 13.7447C25.1398 13.6826 25.178 13.6261 25.2259 13.5787C25.2739 13.5313 25.3307 13.4938 25.3932 13.4683C25.4557 13.4428 25.5225 13.4299 25.59 13.4303C25.6574 13.4307 25.7242 13.4443 25.7863 13.4705C25.8485 13.4967 25.9049 13.5348 25.9524 13.5828C25.9998 13.6308 26.0373 13.6876 26.0628 13.7501C26.0882 13.8125 26.1011 13.8794 26.1008 13.9469C26.1004 14.0143 26.0867 14.081 26.0605 14.1432L24.1929 18.5784C24.1538 18.6717 24.0879 18.7513 24.0037 18.8073C23.9195 18.8633 23.8206 18.8932 23.7194 18.8932Z" fill="white"/>
<path d="M18.5837 18.8932C18.499 18.8932 18.4156 18.8722 18.3409 18.8321C18.2662 18.792 18.2027 18.7341 18.1558 18.6635C18.109 18.5929 18.0804 18.5117 18.0725 18.4274C18.0647 18.343 18.0778 18.258 18.1108 18.1799L19.9758 13.7447C20.0287 13.6192 20.1292 13.5197 20.2554 13.4683C20.3816 13.4169 20.523 13.4177 20.6485 13.4705C20.7741 13.5234 20.8735 13.6239 20.925 13.7501C20.9764 13.8762 20.9756 14.0176 20.9228 14.1432L19.0551 18.5784C19.0161 18.6714 18.9506 18.7508 18.8668 18.8068C18.7829 18.8627 18.6845 18.8928 18.5837 18.8932Z" fill="white"/>
<path d="M13.448 18.8932C13.3632 18.8932 13.2798 18.8722 13.2052 18.8321C13.1305 18.792 13.0669 18.7341 13.0201 18.6635C12.9733 18.5929 12.9447 18.5117 12.9368 18.4274C12.9289 18.343 12.9421 18.258 12.975 18.1799L14.8406 13.7447C14.8935 13.6192 14.994 13.5197 15.1202 13.4683C15.2463 13.4169 15.3877 13.4177 15.5133 13.4705C15.6389 13.5234 15.7383 13.6239 15.7897 13.7501C15.8412 13.8762 15.8404 14.0176 15.7875 14.1432L13.9214 18.5784C13.8823 18.6717 13.8165 18.7513 13.7322 18.8073C13.648 18.8633 13.5491 18.8932 13.448 18.8932Z" fill="white"/>
<path d="M8.31222 18.8932C8.22748 18.8932 8.14407 18.8722 8.06942 18.8321C7.99476 18.792 7.93119 18.7341 7.88436 18.6635C7.83754 18.5929 7.80891 18.5117 7.80105 18.4274C7.79318 18.343 7.80631 18.258 7.83927 18.1799L9.70538 13.7447C9.75822 13.6192 9.85878 13.5197 9.98493 13.4683C10.1111 13.4169 10.2525 13.4177 10.3781 13.4705C10.5036 13.5234 10.6031 13.6239 10.6545 13.7501C10.7059 13.8762 10.7051 14.0176 10.6523 14.1432L8.78465 18.5784C8.74557 18.6715 8.67992 18.7511 8.59589 18.807C8.51186 18.863 8.41319 18.893 8.31222 18.8932Z" fill="white"/>
<path d="M3.64566 14.4575C3.53262 14.4575 3.42274 14.4203 3.33305 14.3515C3.24336 14.2827 3.17888 14.1862 3.1496 14.077L2.13285 10.2914C2.09752 10.1609 2.08831 10.0247 2.10574 9.89066C2.12316 9.7566 2.16688 9.6273 2.23439 9.51018C2.3019 9.39305 2.39186 9.29041 2.49913 9.20813C2.6064 9.12585 2.72885 9.06556 2.85947 9.03072L32.5226 1.06253C32.653 1.02728 32.7892 1.01813 32.9232 1.03559C33.0572 1.05305 33.1864 1.09679 33.3035 1.16429C33.4205 1.23179 33.5231 1.32173 33.6054 1.42896C33.6876 1.53618 33.7479 1.65859 33.7827 1.78915L34.666 5.07563C34.7365 5.33909 34.6995 5.61974 34.5633 5.856C34.4271 6.09225 34.2027 6.26481 33.9394 6.3358L3.77609 14.4401C3.73354 14.4515 3.6897 14.4573 3.64566 14.4575ZM32.7906 2.05412L3.12341 10.0228L4.00512 13.315L33.6728 5.34574L32.7906 2.05412Z" fill="white"/>
<path d="M29.7947 7.43316C29.7164 7.43316 29.6392 7.41525 29.5689 7.3808C29.4986 7.34636 29.437 7.29629 29.3891 7.23443L26.4353 3.43546C26.3517 3.32794 26.3142 3.1916 26.3311 3.05644C26.348 2.92128 26.4179 2.79836 26.5254 2.71474C26.633 2.63112 26.7693 2.59364 26.9045 2.61054C27.0396 2.62744 27.1625 2.69734 27.2462 2.80486L30.2004 6.60486C30.2594 6.68077 30.296 6.77173 30.3059 6.86738C30.3158 6.96304 30.2986 7.05954 30.2563 7.14592C30.214 7.23229 30.1484 7.30506 30.0667 7.35593C29.9851 7.40681 29.8909 7.43374 29.7947 7.43368V7.43316Z" fill="white"/>
<path d="M24.8355 8.76521C24.7572 8.76527 24.68 8.74744 24.6097 8.71308C24.5394 8.67873 24.4778 8.62876 24.4298 8.567L21.4756 4.767C21.4318 4.714 21.3991 4.65275 21.3794 4.58688C21.3597 4.52101 21.3535 4.45186 21.361 4.38353C21.3686 4.31519 21.3898 4.24907 21.4233 4.18908C21.4569 4.1291 21.5022 4.07646 21.5565 4.0343C21.6108 3.99214 21.673 3.96131 21.7394 3.94364C21.8059 3.92597 21.8752 3.92182 21.9433 3.93144C22.0113 3.94106 22.0768 3.96425 22.1357 3.99963C22.1947 4.03502 22.2459 4.08187 22.2864 4.13743L25.2406 7.93743C25.2997 8.0133 25.3362 8.10421 25.3461 8.19982C25.356 8.29543 25.3389 8.3919 25.2967 8.47825C25.2544 8.56461 25.1888 8.63738 25.1073 8.68829C25.0258 8.7392 24.9316 8.76621 24.8355 8.76624V8.76521Z" fill="white"/>
<path d="M19.8758 10.0972C19.7976 10.0973 19.7203 10.0795 19.65 10.0451C19.5797 10.0108 19.5182 9.9608 19.4701 9.89903L16.5159 6.09903C16.4323 5.99151 16.3948 5.85517 16.4117 5.72001C16.4286 5.58485 16.4985 5.46194 16.606 5.37832C16.7135 5.29469 16.8499 5.25721 16.985 5.27411C17.1202 5.29101 17.2431 5.36091 17.3267 5.46844L20.281 9.26844C20.34 9.34431 20.3765 9.43522 20.3864 9.53083C20.3963 9.62644 20.3792 9.72291 20.337 9.80926C20.2948 9.89562 20.2292 9.96839 20.1476 10.0193C20.0661 10.0702 19.9719 10.0972 19.8758 10.0972Z" fill="white"/>
<path d="M14.9164 11.4298C14.8382 11.4299 14.7609 11.412 14.6906 11.3777C14.6203 11.3433 14.5588 11.2934 14.5107 11.2316L11.5565 7.43161C11.5137 7.3785 11.4819 7.31741 11.463 7.25189C11.4441 7.18638 11.4384 7.11775 11.4463 7.05001C11.4542 6.98228 11.4755 6.91679 11.509 6.85738C11.5425 6.79797 11.5874 6.74582 11.6413 6.70398C11.6951 6.66214 11.7568 6.63144 11.8226 6.61367C11.8885 6.59591 11.9572 6.59144 12.0248 6.60052C12.0924 6.6096 12.1575 6.63205 12.2163 6.66657C12.2751 6.70108 12.3264 6.74696 12.3673 6.80153L15.3216 10.6015C15.3806 10.6774 15.4171 10.7683 15.427 10.8639C15.4369 10.9595 15.4198 11.056 15.3776 11.1423C15.3354 11.2287 15.2698 11.3015 15.1883 11.3524C15.1067 11.4033 15.0125 11.4303 14.9164 11.4303V11.4298Z" fill="white"/>
<path d="M9.95638 12.7618C9.87812 12.7619 9.80089 12.744 9.73058 12.7097C9.66028 12.6753 9.59875 12.6254 9.5507 12.5636L6.59646 8.76359C6.51283 8.65606 6.47535 8.51972 6.49225 8.38456C6.50915 8.2494 6.57905 8.12649 6.68658 8.04287C6.7941 7.95925 6.93044 7.92176 7.0656 7.93866C7.20076 7.95556 7.32367 8.02547 7.40729 8.13299L10.3615 11.933C10.4206 12.0089 10.4571 12.0998 10.467 12.1954C10.4769 12.291 10.4598 12.3875 10.4176 12.4738C10.3753 12.5602 10.3097 12.6329 10.2282 12.6839C10.1467 12.7348 10.0525 12.7618 9.95638 12.7618Z" fill="white"/>
<path d="M19.0002 32.7575C17.9438 32.7575 16.911 32.4442 16.0327 31.8571C15.1543 31.2701 14.4698 30.4357 14.0658 29.4596C13.6617 28.4835 13.5562 27.4095 13.7626 26.3734C13.9691 25.3373 14.4782 24.3857 15.2255 23.639C15.9729 22.8923 16.9249 22.384 17.9612 22.1785C18.9974 21.9729 20.0714 22.0794 21.0472 22.4843C22.0229 22.8892 22.8567 23.5744 23.443 24.4533C24.0292 25.3321 24.3417 26.3651 24.3408 27.4216C24.3384 28.8368 23.7749 30.1934 22.7737 31.1937C21.7725 32.194 20.4155 32.7564 19.0002 32.7575ZM19.0002 23.1081C18.1471 23.1081 17.3131 23.3611 16.6037 23.835C15.8944 24.309 15.3415 24.9827 15.015 25.7709C14.6886 26.5591 14.6031 27.4264 14.7696 28.2631C14.936 29.0998 15.3468 29.8684 15.9501 30.4717C16.5533 31.0749 17.3219 31.4858 18.1587 31.6522C18.9954 31.8186 19.8627 31.7332 20.6509 31.4067C21.4391 31.0803 22.1128 30.5274 22.5868 29.818C23.0607 29.1087 23.3137 28.2747 23.3137 27.4216C23.3129 26.2778 22.8582 25.1811 22.0494 24.3724C21.2407 23.5636 20.144 23.1089 19.0002 23.1081Z" fill="white"/>
<path d="M18.435 29.9594C18.1059 29.9592 17.7903 29.8283 17.5575 29.5956C17.3247 29.3629 17.1938 29.0474 17.1934 28.7183V26.1209C17.1934 25.8899 17.2578 25.6636 17.3796 25.4673C17.5013 25.271 17.6754 25.1126 17.8823 25.0099C18.0892 24.9073 18.3207 24.8645 18.5506 24.8863C18.7806 24.9081 18.9998 24.9937 19.1837 25.1334L20.8927 26.4321C21.0448 26.5479 21.1681 26.6972 21.2529 26.8684C21.3378 27.0397 21.382 27.2282 21.382 27.4193C21.382 27.6105 21.3378 27.799 21.2529 27.9702C21.1681 28.1415 21.0448 28.2908 20.8927 28.4066L19.1837 29.7058C18.9686 29.8699 18.7056 29.959 18.435 29.9594ZM18.435 25.9063C18.4013 25.9066 18.3681 25.9147 18.338 25.9299C18.3019 25.9468 18.2715 25.9739 18.2505 26.0078C18.2295 26.0417 18.2189 26.081 18.2199 26.1209V28.7183C18.2199 28.7579 18.231 28.7968 18.252 28.8305C18.2729 28.8642 18.3028 28.8914 18.3384 28.909C18.3739 28.9266 18.4137 28.9339 18.4531 28.9302C18.4926 28.9264 18.5303 28.9117 18.5619 28.8877L20.2708 27.589C20.2968 27.569 20.3179 27.5433 20.3324 27.5139C20.3469 27.4845 20.3544 27.4521 20.3544 27.4193C20.3544 27.3865 20.3469 27.3542 20.3324 27.3247C20.3179 27.2953 20.2968 27.2696 20.2708 27.2496L18.5619 25.9514C18.5259 25.9226 18.4812 25.9066 18.435 25.9063Z" fill="white"/>
</svg>
