<svg width="36" height="38" viewBox="0 0 36 38" fill="none" xmlns="http://www.w3.org/2000/svg">
<path d="M21.748 5.90039V4.61641C21.748 3.4957 20.8352 2.58281 19.7145 2.58281H8.41094C7.29023 2.58281 6.37734 3.4957 6.37734 4.61641V5.90039C6.37734 7.02109 7.29023 7.93398 8.41094 7.93398H19.7145C20.8352 7.93398 21.748 7.02852 21.748 5.90039ZM7.49062 5.90039V4.61641C7.49062 4.11172 7.90625 3.69609 8.41094 3.69609H19.7145C20.2191 3.69609 20.6348 4.11172 20.6348 4.61641V5.90039C20.6348 6.40508 20.2191 6.8207 19.7145 6.8207H8.41094C7.89883 6.82812 7.49062 6.4125 7.49062 5.90039ZM22.2527 25.9766H13.2055C12.9012 25.9766 12.6488 26.2289 12.6488 26.5332C12.6488 26.8375 12.9012 27.0898 13.2055 27.0898H22.2527C22.557 27.0898 22.8094 26.8375 22.8094 26.5332C22.8094 26.2289 22.557 25.9766 22.2527 25.9766ZM4.09141 1.11328H24.034C25.1695 1.11328 26.1641 1.87773 26.4461 2.97617C26.5203 3.27305 26.8246 3.45117 27.1215 3.37695C27.4184 3.30273 27.5965 2.99844 27.5223 2.70156C27.1066 1.10586 25.6742 0 24.034 0H4.09141C2.10234 0 0.484375 1.61797 0.484375 3.60703V30.6449C0.484375 32.2332 1.50117 33.6137 3.01523 34.0887C3.31211 34.1777 3.62383 34.0145 3.71289 33.725C3.80195 33.4281 3.63867 33.1164 3.34922 33.0273C2.30273 32.7008 1.60508 31.7434 1.60508 30.6523V3.60703C1.59766 2.23398 2.71836 1.11328 4.09141 1.11328ZM22.2527 18.9406H13.2055C12.9012 18.9406 12.6488 19.193 12.6488 19.4973C12.6488 19.8016 12.9012 20.0539 13.2055 20.0539H22.2527C22.557 20.0539 22.8094 19.8016 22.8094 19.4973C22.8094 19.193 22.557 18.9406 22.2527 18.9406ZM4.79648 19.4973C4.79648 20.8406 5.8875 21.9391 7.23828 21.9391C8.58906 21.9391 9.68008 20.848 9.68008 19.4973C9.68008 18.1539 8.58906 17.0555 7.23828 17.0555C5.89492 17.0555 4.79648 18.1539 4.79648 19.4973ZM8.5668 19.4973C8.5668 20.2246 7.97305 20.8258 7.23828 20.8258C6.51094 20.8258 5.90977 20.232 5.90977 19.4973C5.90977 18.7699 6.50352 18.1688 7.23828 18.1688C7.97305 18.1688 8.5668 18.7699 8.5668 19.4973ZM7.23828 28.975C8.58164 28.975 9.68008 27.884 9.68008 26.5332C9.68008 25.1824 8.58906 24.0914 7.23828 24.0914C5.89492 24.0914 4.79648 25.1824 4.79648 26.5332C4.79648 27.884 5.89492 28.975 7.23828 28.975ZM7.23828 25.2047C7.96562 25.2047 8.5668 25.7984 8.5668 26.5332C8.5668 27.2605 7.97305 27.8617 7.23828 27.8617C6.51094 27.8617 5.90977 27.268 5.90977 26.5332C5.90977 25.8059 6.51094 25.2047 7.23828 25.2047ZM34.7883 22.2137L34.0016 21.427C33.0367 20.4621 31.4781 20.4621 30.5133 21.427L27.6336 24.3066V14.3762C27.6336 14.0719 27.3812 13.8195 27.077 13.8195C26.7727 13.8195 26.5203 14.0719 26.5203 14.3762V25.4273L19.8777 32.0699C19.5883 32.3594 19.3137 32.723 19.0984 33.1312L3.18594 32.9828C2.88164 32.9828 2.6293 33.2352 2.6293 33.5395C2.6293 33.8438 2.88164 34.0961 3.18594 34.0961L18.6828 34.2445L18.3043 35.5285C17.9332 36.8125 18.9203 37.9926 20.1375 37.9926C20.5977 37.9926 20.7684 37.8664 22.2676 37.4508C22.943 37.2504 23.6184 36.8645 24.1527 36.3375L34.7883 25.702C35.7531 24.7445 35.7531 23.1785 34.7883 22.2137ZM20.3824 36.8496C19.7664 37.0277 19.1949 36.4562 19.373 35.8402L19.8109 34.3484L21.8742 36.4117L20.3824 36.8496ZM22.943 35.9145L20.3082 33.2797C20.6125 32.8492 20.3156 33.2352 27.0324 26.4887L29.734 29.1902C22.9652 35.9293 23.3734 35.6102 22.943 35.9145ZM30.5281 28.3961L27.8266 25.6945L29.1625 24.3586L31.8641 27.0602L30.5281 28.3961ZM34.0016 24.9227L32.6508 26.2734L29.9492 23.5719L31.3074 22.2137C31.8344 21.6867 32.6953 21.6867 33.2223 22.2137L34.009 23.0004C34.5285 23.5348 34.5285 24.3883 34.0016 24.9227ZM6.64453 14.0125L9.91758 10.7395C10.1328 10.5242 10.1328 10.168 9.91758 9.95273C9.70234 9.7375 9.34609 9.7375 9.13086 9.95273L6.25117 12.8324L5.33828 11.9195C5.12305 11.7043 4.7668 11.7043 4.55156 11.9195C4.33633 12.1348 4.33633 12.491 4.55156 12.7063L5.85781 14.0125C6.08047 14.2277 6.4293 14.2277 6.64453 14.0125ZM22.2527 11.9047H13.2055C12.9012 11.9047 12.6488 12.157 12.6488 12.4613C12.6488 12.7656 12.9012 13.018 13.2055 13.018H22.2527C22.557 13.018 22.8094 12.7656 22.8094 12.4613C22.8094 12.157 22.557 11.9047 22.2527 11.9047Z" fill="white"/>
</svg>
