<svg width="20" height="18" viewBox="0 0 20 18" fill="none" xmlns="http://www.w3.org/2000/svg">
<g clip-path="url(#clip0)">
<path d="M14.2691 0H5.29612C2.37579 0 0 2.18573 0 4.87243V13.1277C0 15.8142 2.37579 18 5.29612 18H14.2692C17.1894 18 19.5652 15.8142 19.5652 13.1277V4.87243C19.5652 2.18573 17.1894 0 14.2691 0V0ZM18.4182 13.1277C18.4182 15.2324 16.5569 16.9447 14.2691 16.9447H5.29612C3.00825 16.9447 1.14699 15.2324 1.14699 13.1277V4.87243C1.14699 2.76759 3.00825 1.05523 5.29612 1.05523H14.2692C16.5569 1.05523 18.4182 2.76759 18.4182 4.87243V13.1277Z" fill="#FB6E01"/>
<path d="M9.78263 4.07825C6.83274 4.07825 4.43292 6.28608 4.43292 8.99997C4.43292 11.7139 6.83274 13.9217 9.78263 13.9217C12.7325 13.9217 15.1323 11.7139 15.1323 8.99997C15.1323 6.28608 12.7325 4.07825 9.78263 4.07825ZM9.78263 12.8665C7.46535 12.8665 5.57992 11.132 5.57992 8.99997C5.57992 6.86808 7.46535 5.13348 9.78263 5.13348C12.1001 5.13348 13.9853 6.86808 13.9853 8.99997C13.9853 11.132 12.1001 12.8665 9.78263 12.8665Z" fill="#FB6E01"/>
<path d="M15.2603 2.33032C14.3885 2.33032 13.6795 2.98277 13.6795 3.78463C13.6795 4.58664 14.3885 5.23908 15.2603 5.23908C16.132 5.23908 16.8412 4.58664 16.8412 3.78463C16.8412 2.98263 16.132 2.33032 15.2603 2.33032ZM15.2603 4.18371C15.0212 4.18371 14.8265 4.00464 14.8265 3.78463C14.8265 3.5645 15.0212 3.38556 15.2603 3.38556C15.4996 3.38556 15.6942 3.5645 15.6942 3.78463C15.6942 4.00464 15.4996 4.18371 15.2603 4.18371Z" fill="#FB6E01"/>
</g>
<defs>
<clipPath id="clip0">
<rect width="19.5652" height="18" fill="white"/>
</clipPath>
</defs>
</svg>
