<svg width="34" height="34" viewBox="0 0 34 34" fill="none" xmlns="http://www.w3.org/2000/svg">
<path d="M29.0184 4.98156C25.8066 1.76967 21.5426 0 17 0C12.4574 0 8.19344 1.76967 4.98156 4.98156C1.76967 8.19344 0 12.4574 0 17C0 21.5426 1.76967 25.8066 4.98156 29.0184C8.19344 32.2303 12.4574 34 17 34C21.5426 34 25.8066 32.2303 29.0184 29.0184C32.2303 25.8066 34 21.5426 34 17C34 12.4574 32.2303 8.19344 29.0184 4.98156ZM17 33.1639C8.08893 33.1639 0.836066 25.9111 0.836066 17C0.836066 8.08893 8.08893 0.836066 17 0.836066C25.9111 0.836066 33.1639 8.08893 33.1639 17C33.1639 25.9111 25.9111 33.1639 17 33.1639Z" fill="#1D1B1B"/>
<path d="M20.5743 16.7074L15.328 11.4611C15.1677 11.3008 14.903 11.3008 14.7358 11.4611C14.5755 11.6213 14.5755 11.8861 14.7358 12.0533L19.6895 17.007L14.7358 21.9607C14.5825 22.1139 14.5825 22.3787 14.7427 22.5459C14.8263 22.6295 14.9308 22.6713 15.0353 22.6713C15.1399 22.6713 15.2513 22.6295 15.328 22.5459L20.5743 17.2996C20.7345 17.1393 20.7345 16.8746 20.5743 16.7074Z" fill="#1D1B1B"/>
</svg>
