<svg width="20" height="20" viewBox="0 0 20 20" fill="none" xmlns="http://www.w3.org/2000/svg">
<path d="M10 0C4.47717 0 0 4.47717 0 10C0 15.5228 4.47717 20 10 20C15.5229 20 20 15.5228 20 10C20 4.47717 15.5229 0 10 0ZM15.3263 10.7223C15.3235 10.7254 15.321 10.7286 15.3182 10.7316C15.2895 10.7631 15.5005 10.5511 11.6123 14.4393C11.1871 14.8644 10.4974 14.865 10.0717 14.4393C9.64632 14.0139 9.64632 13.3242 10.0717 12.8988L11.8812 11.0893H5.48902C4.88736 11.0893 4.39969 10.6016 4.39969 10C4.39969 9.39839 4.88736 8.91068 5.48902 8.91068H11.8812L10.0718 7.10122C9.64636 6.67582 9.64636 5.9861 10.0718 5.5607C10.4972 5.13529 11.1869 5.13529 11.6123 5.5607C15.5251 9.47346 15.3033 9.24824 15.3532 9.30893C15.6921 9.7224 15.6821 10.3211 15.3263 10.7223Z" fill="#FB6E01"/>
</svg>
