<svg width="34" height="34" viewBox="0 0 34 34" fill="none" xmlns="http://www.w3.org/2000/svg">
<g clip-path="url(#clip0)">
<path d="M4.98156 29.0184C8.19344 32.2303 12.4574 34 17 34C21.5426 34 25.8066 32.2303 29.0184 29.0184C32.2303 25.8066 34 21.5426 34 17C34 12.4574 32.2303 8.19344 29.0184 4.98156C25.8066 1.76967 21.5426 -1.08906e-06 17 -1.48619e-06C12.4574 -1.88332e-06 8.19345 1.76967 4.98156 4.98156C1.76967 8.19344 1.88332e-06 12.4574 1.48619e-06 17C1.08906e-06 21.5426 1.76967 25.8066 4.98156 29.0184ZM17 0.836066C25.9111 0.836066 33.1639 8.08893 33.1639 17C33.1639 25.9111 25.9111 33.1639 17 33.1639C8.08893 33.1639 0.836068 25.9111 0.836069 17C0.836069 8.08893 8.08894 0.836065 17 0.836066Z" fill="#1D1B1B"/>
<path d="M13.4257 17.2926L18.672 22.5389C18.8323 22.6992 19.097 22.6992 19.2642 22.5389C19.4245 22.3787 19.4245 22.1139 19.2642 21.9467L14.3105 16.993L19.2642 12.0393C19.4175 11.8861 19.4175 11.6213 19.2573 11.4541C19.1737 11.3705 19.0692 11.3287 18.9647 11.3287C18.8601 11.3287 18.7487 11.3705 18.672 11.4541L13.4257 16.7004C13.2655 16.8607 13.2655 17.1254 13.4257 17.2926Z" fill="#1D1B1B"/>
</g>
<defs>
<clipPath id="clip0">
<rect width="34" height="34" fill="white" transform="translate(34 34) rotate(-180)"/>
</clipPath>
</defs>
</svg>
