<svg width="50" height="50" viewBox="0 0 50 50" fill="none" xmlns="http://www.w3.org/2000/svg">
<path d="M44.4148 3.23574H43.5294V2.35029C43.5294 1.0543 42.4751 0 41.1791 0C39.8831 0 38.8288 1.0543 38.8288 2.35029V3.23574H35.4401V2.35029C35.4402 1.0543 34.3858 0 33.0899 0C31.794 0 30.7396 1.0543 30.7396 2.35029V3.23574H27.3509V2.35029C27.3509 1.0543 26.2966 0 25.0006 0C23.7046 0 22.6504 1.0543 22.6504 2.35029V3.23574H19.2617V2.35029C19.2618 1.0543 18.2074 0 16.9115 0C15.6155 0 14.5612 1.0543 14.5612 2.35029V3.23574H13.6756C11.4877 3.23574 9.70767 5.01582 9.70767 7.20371V25.1272L7.91607 23.3356C6.99967 22.4192 5.50865 22.4193 4.59224 23.3356L2.30426 25.6236C1.38785 26.5399 1.38785 28.0311 2.30426 28.9474L9.70758 36.3507V46.0319C9.70758 48.2199 11.4877 50 13.6755 50H38.5912C38.9957 50 39.3236 49.6721 39.3236 49.2676C39.3236 48.8631 38.9957 48.5352 38.5912 48.5352H13.6756C12.2954 48.5352 11.1725 47.4122 11.1725 46.0319V37.8155L17.1475 43.7905C17.1649 43.8079 17.1831 43.8243 17.2019 43.8396C17.2147 43.8501 17.228 43.8594 17.2413 43.8688C17.2475 43.8732 17.2534 43.8782 17.2597 43.8824C17.2765 43.8937 17.2938 43.9036 17.3113 43.9133C17.3146 43.9151 17.3177 43.9173 17.3211 43.919C17.3395 43.9289 17.3584 43.9375 17.3773 43.9456C17.3801 43.9468 17.3828 43.9483 17.3857 43.9495C17.4042 43.9571 17.4229 43.9636 17.4418 43.9696C17.4457 43.9709 17.4494 43.9725 17.4533 43.9736C17.4711 43.979 17.489 43.9832 17.507 43.9871C17.5124 43.9883 17.5175 43.9899 17.5229 43.991C17.5404 43.9944 17.558 43.9967 17.5756 43.9988C17.5818 43.9996 17.5878 44.0009 17.5939 44.0015C17.6176 44.0038 17.6416 44.005 17.6654 44.005H21.9379L22.8674 44.9345C23.0104 45.0774 23.1979 45.149 23.3853 45.149C23.5727 45.149 23.7602 45.0774 23.9032 44.9345C24.1892 44.6484 24.1892 44.1847 23.9032 43.8986L22.9737 42.9692V38.6969C22.9737 38.6729 22.9725 38.6489 22.9702 38.625C22.9697 38.6197 22.9685 38.6146 22.9679 38.6094C22.9657 38.5908 22.9632 38.5724 22.9596 38.554C22.9587 38.5493 22.9573 38.5447 22.9562 38.54C22.9521 38.5214 22.9477 38.5027 22.9422 38.4844C22.9413 38.4811 22.9399 38.4779 22.9388 38.4746C22.9327 38.4552 22.9259 38.4358 22.9181 38.4168C22.9172 38.4147 22.9162 38.4128 22.9153 38.4107C22.9069 38.3909 22.8978 38.3713 22.8877 38.3521C22.8863 38.3496 22.8847 38.3474 22.8834 38.3448C22.8733 38.3265 22.8628 38.3084 22.851 38.2908C22.8474 38.2854 22.8431 38.2803 22.8393 38.2749C22.8294 38.2607 22.8194 38.2466 22.8084 38.233C22.7929 38.2142 22.7766 38.196 22.7592 38.1786L16.7841 32.2035H41.9879C42.3924 32.2035 42.7204 31.8756 42.7204 31.4711C42.7204 31.0666 42.3924 30.7387 41.9879 30.7387H16.1025C15.8874 30.7387 15.6944 30.832 15.5604 30.9798L11.1724 26.5918V12.7897H46.9179V17.785C46.9179 18.1895 47.2459 18.5174 47.6503 18.5174C48.0548 18.5174 48.3828 18.1895 48.3828 17.785V7.20371C48.3829 5.01572 46.6028 3.23574 44.4148 3.23574ZM21.5089 42.5402H19.4337L21.5089 40.4649V42.5402ZM6.14595 30.7175L7.3982 29.4653L18.9176 40.9848L17.6655 42.2369L6.14595 30.7175ZM19.9534 39.9489L8.43394 28.4295L9.68619 27.1773L21.2056 38.6968L19.9534 39.9489ZM3.3401 26.6595L5.62808 24.3715C5.9733 24.0263 6.53511 24.0262 6.88033 24.3715L8.65045 26.1416L5.11021 29.6816L3.34019 27.9116C2.99488 27.5664 2.99488 27.0047 3.3401 26.6595ZM41.1791 1.46484C41.6673 1.46484 42.0645 1.86201 42.0645 2.35029V5.58594C42.0645 6.07422 41.6673 6.47139 41.1791 6.47139C40.6908 6.47139 40.2936 6.07422 40.2936 5.58594V3.96914C40.2936 3.96885 40.2936 3.96855 40.2936 3.96816C40.2936 3.96777 40.2936 3.96758 40.2936 3.96719V2.35029C40.2937 1.86201 40.6909 1.46484 41.1791 1.46484ZM33.0899 1.46484C33.5782 1.46484 33.9753 1.86201 33.9753 2.35029V5.58594C33.9753 6.07422 33.5782 6.47139 33.0899 6.47139C32.6016 6.47139 32.2044 6.07422 32.2044 5.58594V3.96914C32.2044 3.96885 32.2044 3.96855 32.2044 3.96816C32.2044 3.96777 32.2044 3.96758 32.2044 3.96719V2.35029C32.2044 1.86201 32.6016 1.46484 33.0899 1.46484ZM24.1153 2.35029C24.1153 1.86201 24.5125 1.46484 25.0007 1.46484C25.489 1.46484 25.8862 1.86201 25.8862 2.35029V3.96719V3.96816C25.8862 3.96816 25.8862 3.96875 25.8862 3.96914V5.58594C25.8862 6.07422 25.489 6.47139 25.0007 6.47139C24.5126 6.47139 24.1153 6.07422 24.1153 5.58594V2.35029ZM16.9115 1.46484C17.3997 1.46484 17.7969 1.86201 17.7969 2.35029V5.58594C17.7969 6.07422 17.3998 6.47139 16.9115 6.47139C16.4232 6.47139 16.026 6.07422 16.026 5.58594V2.35029C16.026 1.86201 16.4232 1.46484 16.9115 1.46484ZM11.1725 11.3249V7.20371C11.1725 5.82344 12.2955 4.70059 13.6756 4.70059H14.5612V5.58594C14.5612 6.88193 15.6155 7.93623 16.9115 7.93623C18.2074 7.93623 19.2618 6.88193 19.2618 5.58594V4.70059H22.6504V5.58594C22.6504 6.88193 23.7047 7.93623 25.0007 7.93623C26.2967 7.93623 27.351 6.88193 27.351 5.58594V4.70059H30.7397V5.58594C30.7397 6.88193 31.794 7.93623 33.09 7.93623C34.386 7.93623 35.4403 6.88193 35.4403 5.58594V4.70059H38.829V5.58594C38.829 6.88193 39.8833 7.93623 41.1793 7.93623C42.4753 7.93623 43.5295 6.88193 43.5295 5.58594V4.70059H44.415C45.7953 4.70059 46.9182 5.82353 46.9182 7.20371V11.3249H11.1725Z" fill="#FFD9BB"/>
<path d="M47.6505 19.9823C47.246 19.9823 46.9181 20.3103 46.9181 20.7148V46.0319C46.9181 47.4122 45.7951 48.5352 44.4148 48.5352H41.5209C41.1164 48.5352 40.7885 48.8631 40.7885 49.2676C40.7885 49.6721 41.1164 50 41.5209 50H44.4148C46.6028 50 48.3829 48.2199 48.3829 46.0319V20.7148C48.3829 20.3103 48.055 19.9823 47.6505 19.9823Z" fill="#FFD9BB"/>
<path d="M16.1025 17.6432H41.9879C42.3924 17.6432 42.7204 17.3153 42.7204 16.9108C42.7204 16.5063 42.3924 16.1784 41.9879 16.1784H16.1025C15.698 16.1784 15.3701 16.5063 15.3701 16.9108C15.3701 17.3153 15.698 17.6432 16.1025 17.6432Z" fill="#FFD9BB"/>
<path d="M16.1025 22.4968H41.9879C42.3924 22.4968 42.7204 22.1688 42.7204 21.7643C42.7204 21.3599 42.3924 21.0319 41.9879 21.0319H16.1025C15.698 21.0319 15.3701 21.3599 15.3701 21.7643C15.3701 22.1688 15.698 22.4968 16.1025 22.4968Z" fill="#FFD9BB"/>
<path d="M16.1025 27.3503H41.9879C42.3924 27.3503 42.7204 27.0224 42.7204 26.6179C42.7204 26.2134 42.3924 25.8854 41.9879 25.8854H16.1025C15.698 25.8854 15.3701 26.2134 15.3701 26.6179C15.3701 27.0224 15.698 27.3503 16.1025 27.3503Z" fill="#FFD9BB"/>
<path d="M42.7205 36.3249C42.7205 35.9204 42.3925 35.5925 41.988 35.5925H25.0007C24.5962 35.5925 24.2683 35.9204 24.2683 36.3249C24.2683 36.7294 24.5962 37.0573 25.0007 37.0573H41.988C42.3925 37.0573 42.7205 36.7294 42.7205 36.3249Z" fill="#FFD9BB"/>
</svg>
