<svg width="70" height="70" viewBox="0 0 70 70" fill="none" xmlns="http://www.w3.org/2000/svg">
<path d="M46.5455 33.6315L32.0102 23.0655C31.4767 22.6788 30.7686 22.6206 30.1839 22.921C29.5946 23.2192 29.2266 23.8248 29.2266 24.4794V45.6045C29.2266 46.266 29.5946 46.8693 30.1839 47.1675C30.4332 47.2933 30.7057 47.3562 30.9806 47.3562C31.3393 47.3562 31.7027 47.242 32.0102 47.0161L46.5455 36.4594C47.0043 36.1216 47.2722 35.5998 47.2722 35.0454C47.2745 34.4817 46.9997 33.9623 46.5455 33.6315Z" fill="white"/>
<path d="M35.0012 0.00335693C15.6674 0.00335693 0 15.6707 0 35.0045C0 54.3313 15.6674 69.994 35.0012 69.994C54.3303 69.994 70 54.329 70 35.0045C70.0023 15.6707 54.3303 0.00335693 35.0012 0.00335693ZM35.0012 64.1543C18.9005 64.1543 5.84673 51.1075 5.84673 35.0045C5.84673 18.9086 18.9005 5.84542 35.0012 5.84542C51.0995 5.84542 64.1509 18.9062 64.1509 35.0045C64.1533 51.1075 51.0995 64.1543 35.0012 64.1543Z" fill="white"/>
</svg>
