<svg width="18" height="18" viewBox="0 0 18 18" fill="none" xmlns="http://www.w3.org/2000/svg">
<g clip-path="url(#clip0)">
<path d="M15.6044 6.92288L4.97314 0.369581C4.20399 -0.103938 3.27407 -0.123626 2.48555 0.316917C1.69703 0.75739 1.22629 1.55969 1.22629 2.46289V15.5098C1.22629 16.8755 2.32668 17.9925 3.67914 17.9999C3.68284 17.9999 3.68653 17.9999 3.69015 17.9999C4.1128 17.9999 4.55324 17.8674 4.9646 17.6164C5.29553 17.4145 5.40012 16.9826 5.19821 16.6517C4.99631 16.3207 4.56431 16.2162 4.23349 16.4181C4.04108 16.5354 3.85317 16.5961 3.6867 16.5961C3.17641 16.5933 2.63004 16.1562 2.63004 15.5098V2.46293C2.63004 2.07547 2.83198 1.73139 3.17019 1.54243C3.50843 1.35346 3.90727 1.3619 4.23679 1.56479L14.8681 8.11809C15.1876 8.31483 15.3705 8.64287 15.3697 9.01813C15.3689 9.39335 15.1848 9.72065 14.8635 9.91672L7.17699 14.623C6.84638 14.8254 6.74246 15.2576 6.94489 15.5881C7.14728 15.9187 7.57939 16.0227 7.91 15.8202L15.5956 11.1145C16.3314 10.6656 16.7718 9.88301 16.7735 9.02094C16.7753 8.15898 16.3381 7.37457 15.6044 6.92288Z" fill="white"/>
</g>
<defs>
<clipPath id="clip0">
<rect width="18" height="18" fill="white"/>
</clipPath>
</defs>
</svg>
