<svg width="35" height="14" viewBox="0 0 35 14" fill="none" xmlns="http://www.w3.org/2000/svg">
<g clip-path="url(#clip0)">
<path d="M33.1106 7.42541H0.779977C0.54598 7.42541 0.350983 7.23204 0.350983 7C0.350983 6.76796 0.54598 6.57458 0.779977 6.57458H33.1106C33.3446 6.57458 33.5396 6.76796 33.5396 7C33.5396 7.23204 33.3446 7.42541 33.1106 7.42541Z" fill="#5B5B5B"/>
<path d="M33.8514 7.30939C33.7578 7.30939 33.672 7.27845 33.6018 7.20884L27.1669 0.827627C27.0265 0.688401 27.0265 0.471826 27.1669 0.3326C27.3073 0.193373 27.5257 0.193373 27.6661 0.3326L34.101 6.71381C34.2414 6.85304 34.2414 7.06961 34.101 7.20884C34.0308 7.27845 33.945 7.30939 33.8514 7.30939Z" fill="#5B5B5B"/>
<path d="M27.4401 13.7138C27.3465 13.7138 27.2607 13.6829 27.1905 13.6133C27.0501 13.474 27.0501 13.2575 27.1905 13.1182L33.602 6.75249C33.7424 6.61326 33.9608 6.61326 34.1012 6.75249C34.2416 6.89172 34.2416 7.10829 34.1012 7.24752L27.6897 13.6133C27.6195 13.6829 27.5337 13.7138 27.4401 13.7138Z" fill="#5B5B5B"/>
<path d="M33.7736 7.42544H0.779977C0.54598 7.42544 0.350983 7.23207 0.350983 7.00003C0.350983 6.76799 0.54598 6.57462 0.779977 6.57462H33.7736C34.0076 6.57462 34.2026 6.76799 34.2026 7.00003C34.2026 7.23207 34.0076 7.42544 33.7736 7.42544Z" fill="#FB6E01"/>
<path d="M33.9294 7.30939C33.8358 7.30939 33.75 7.27845 33.6798 7.20884L27.2449 0.827627C27.1045 0.688401 27.1045 0.471826 27.2449 0.3326C27.3853 0.193373 27.6037 0.193373 27.7441 0.3326L34.179 6.71381C34.3194 6.85304 34.3194 7.06961 34.179 7.20884C34.1088 7.27845 34.023 7.30939 33.9294 7.30939Z" fill="#FB6E01"/>
<path d="M27.518 13.7138C27.4244 13.7138 27.3386 13.6829 27.2684 13.6133C27.128 13.474 27.128 13.2575 27.2684 13.1182L33.6799 6.75249C33.8203 6.61326 34.0387 6.61326 34.1791 6.75249C34.3195 6.89172 34.3195 7.10829 34.1791 7.24752L27.7676 13.6133C27.6974 13.6829 27.6116 13.7138 27.518 13.7138Z" fill="#FB6E01"/>
</g>
<defs>
<clipPath id="clip0">
<rect width="34.6316" height="14" fill="white"/>
</clipPath>
</defs>
</svg>
