<svg width="48" height="50" viewBox="0 0 48 50" fill="none" xmlns="http://www.w3.org/2000/svg">
<path d="M46.6277 19.6534C46.6272 19.6528 46.6267 19.6523 46.626 19.6517L46.6224 19.6483C46.6219 19.648 46.6215 19.6475 46.621 19.647C46.6209 19.6469 46.6207 19.6468 46.6206 19.6466L39.2945 12.8094V9.60819C39.2945 9.20356 38.9666 8.8757 38.562 8.8757C38.1574 8.8757 37.8295 9.20356 37.8295 9.60819V26.9283L25.7083 38.2405C24.7505 39.1346 23.2499 39.1346 22.2921 38.2405L10.1707 26.9281V5.58204C10.1707 5.09372 10.5679 4.69652 11.0561 4.69652H36.944C37.4322 4.69652 37.8294 5.09372 37.8294 5.58204V6.67833C37.8294 7.08296 38.1573 7.41082 38.5619 7.41082C38.9665 7.41082 39.2944 7.08296 39.2944 6.67833V5.58204C39.2944 4.28593 38.24 3.23154 36.944 3.23154H29.0315L26.7077 1.06279C25.1896 -0.354133 22.811 -0.354231 21.2925 1.06279L18.9686 3.23154H11.0562C9.76008 3.23154 8.70579 4.28603 8.70579 5.58204V12.8095L1.37994 19.6465C1.37984 19.6466 1.37964 19.6468 1.37945 19.6469C1.37886 19.6474 1.37837 19.648 1.37779 19.6484L1.37437 19.6517C1.37378 19.6522 1.3733 19.6528 1.37271 19.6533C0.891611 20.0972 0.615707 20.7263 0.615707 21.3808V46.0315C0.615707 48.2197 2.39604 50 4.58423 50H7.9733C8.37793 50 8.70579 49.6721 8.70579 49.2675C8.70579 48.8629 8.37793 48.535 7.9733 48.535H4.58413C3.20363 48.535 2.08059 47.412 2.08059 46.0315V21.382L21.2926 39.3115C22.0517 40.0202 23.0258 40.3744 24.0002 40.3744C24.9744 40.3744 25.9488 40.0201 26.7079 39.3116L45.9195 21.3822V46.0316C45.9195 47.4121 44.7964 48.5351 43.4159 48.5351H10.9033C10.4986 48.5351 10.1708 48.863 10.1708 49.2676C10.1708 49.6722 10.4986 50.0001 10.9033 50.0001H43.4159C45.6041 50.0001 47.3845 48.2198 47.3845 46.0316V21.3809C47.3845 20.7265 47.1086 20.0975 46.6277 19.6534ZM22.292 2.13379C23.2498 1.23976 24.7504 1.23976 25.7082 2.13379L26.8844 3.23144H21.1158L22.292 2.13379ZM8.70569 25.5609L2.94765 20.1873L8.70559 14.8134V25.5609H8.70569ZM39.2945 14.8133L45.0526 20.1873L39.2945 25.5612V14.8133Z" fill="#FFD9BB"/>
<path d="M41.798 46.7644C43.0942 46.7644 44.1484 45.7099 44.1484 44.4138C44.1484 43.1178 43.0941 42.0634 41.798 42.0634H35.326C34.03 42.0634 32.9756 43.1178 32.9756 44.4138C32.9756 45.7099 34.03 46.7644 35.326 46.7644H41.798ZM34.4405 44.4138C34.4405 43.9255 34.8377 43.5283 35.326 43.5283H41.798C42.2863 43.5283 42.6835 43.9255 42.6835 44.4138C42.6835 44.9021 42.2863 45.2993 41.798 45.2993H35.326C34.8377 45.2994 34.4405 44.9021 34.4405 44.4138Z" fill="#FFD9BB"/>
<path d="M24 22.4096C22.7039 22.4096 21.6496 23.464 21.6496 24.76C21.6496 26.0561 22.704 27.1105 24 27.1105C25.296 27.1105 26.3504 26.0561 26.3504 24.76C26.3505 23.464 25.2961 22.4096 24 22.4096ZM24 25.6456C23.5117 25.6456 23.1145 25.2484 23.1145 24.7601C23.1145 24.2719 23.5117 23.8747 24 23.8747C24.4882 23.8747 24.8854 24.2719 24.8854 24.7601C24.8855 25.2484 24.4882 25.6456 24 25.6456Z" fill="#FFD9BB"/>
<path d="M26.3506 16.8851C28.4466 15.9138 29.7336 13.751 29.5729 11.4251C29.3825 8.66161 27.1548 6.43397 24.3916 6.24323C22.8486 6.13629 21.3167 6.67901 20.1888 7.73184C19.0607 8.78467 18.4136 10.2734 18.4136 11.8162C18.4136 13.1122 19.468 14.1666 20.764 14.1666C22.0601 14.1666 23.1144 13.1122 23.1144 11.8162C23.1144 11.5644 23.2119 11.3405 23.3962 11.1685C23.5773 10.9996 23.8167 10.9162 24.0678 10.933C24.4884 10.962 24.8541 11.3279 24.8831 11.7486C24.9097 12.1342 24.6899 12.4912 24.3357 12.6365C22.7039 13.3066 21.6496 14.8899 21.6496 16.6702V18.2882C21.6496 19.5842 22.704 20.6387 24.0001 20.6387C25.2962 20.6387 26.3505 19.5842 26.3505 18.2882V16.8851H26.3506ZM25.565 15.63C25.1522 15.7996 24.8856 16.2079 24.8856 16.6702V18.2882C24.8856 18.7765 24.4884 19.1737 24.0002 19.1737C23.5118 19.1737 23.1146 18.7765 23.1146 18.2882V16.6702C23.1146 15.4865 23.8124 14.4352 24.8923 13.9916C25.8312 13.6062 26.4149 12.6642 26.3448 11.6477C26.2659 10.5061 25.3101 9.55017 24.1678 9.47155C24.112 9.46774 24.0564 9.46579 24.0012 9.46579C23.4014 9.46579 22.837 9.6868 22.397 10.0974C21.9151 10.547 21.6497 11.1574 21.6497 11.8163C21.6497 12.3045 21.2525 12.7017 20.7642 12.7017C20.276 12.7017 19.8788 12.3045 19.8788 11.8163C19.8788 10.6781 20.3562 9.57976 21.1885 8.80284C22.0207 8.02621 23.1514 7.62607 24.2909 7.70489C26.3285 7.84533 27.9711 9.48815 28.1116 11.526C28.2342 13.3047 27.2109 14.9541 25.565 15.63Z" fill="#FFD9BB"/>
</svg>
