<svg width="50" height="50" viewBox="0 0 50 50" fill="none" xmlns="http://www.w3.org/2000/svg">
<g clip-path="url(#clip0)">
<path d="M47.6277 19.6534C47.6272 19.6528 47.6267 19.6523 47.626 19.6517L47.6224 19.6483C47.6219 19.648 47.6215 19.6475 47.621 19.647C47.6209 19.6469 47.6207 19.6468 47.6206 19.6466L40.2945 12.8094V9.60819C40.2945 9.20356 39.9666 8.8757 39.562 8.8757C39.1574 8.8757 38.8295 9.20356 38.8295 9.60819V26.9283L26.7083 38.2405C25.7505 39.1346 24.2499 39.1346 23.2921 38.2405L11.1707 26.9281V5.58204C11.1707 5.09372 11.5679 4.69652 12.0561 4.69652H37.944C38.4322 4.69652 38.8294 5.09372 38.8294 5.58204V6.67833C38.8294 7.08296 39.1573 7.41082 39.5619 7.41082C39.9665 7.41082 40.2944 7.08296 40.2944 6.67833V5.58204C40.2944 4.28593 39.24 3.23154 37.944 3.23154H30.0315L27.7077 1.06279C26.1896 -0.354133 23.811 -0.354231 22.2925 1.06279L19.9686 3.23154H12.0562C10.7601 3.23154 9.70579 4.28603 9.70579 5.58204V12.8095L2.37994 19.6465C2.37984 19.6466 2.37964 19.6468 2.37945 19.6469C2.37886 19.6474 2.37837 19.648 2.37779 19.6484L2.37437 19.6517C2.37378 19.6522 2.3733 19.6528 2.37271 19.6533C1.89161 20.0972 1.61571 20.7263 1.61571 21.3808V46.0315C1.61571 48.2197 3.39604 50 5.58423 50H8.9733C9.37793 50 9.70579 49.6721 9.70579 49.2675C9.70579 48.8629 9.37793 48.535 8.9733 48.535H5.58413C4.20363 48.535 3.08059 47.412 3.08059 46.0315V21.382L22.2926 39.3115C23.0517 40.0202 24.0258 40.3744 25.0002 40.3744C25.9744 40.3744 26.9488 40.0201 27.7079 39.3116L46.9195 21.3822V46.0316C46.9195 47.4121 45.7964 48.5351 44.4159 48.5351H11.9033C11.4986 48.5351 11.1708 48.863 11.1708 49.2676C11.1708 49.6722 11.4986 50.0001 11.9033 50.0001H44.4159C46.6041 50.0001 48.3845 48.2198 48.3845 46.0316V21.3809C48.3845 20.7265 48.1086 20.0975 47.6277 19.6534ZM23.292 2.13379C24.2498 1.23976 25.7504 1.23976 26.7082 2.13379L27.8844 3.23144H22.1158L23.292 2.13379ZM9.70569 25.5609L3.94765 20.1873L9.70559 14.8134V25.5609H9.70569ZM40.2945 14.8133L46.0526 20.1873L40.2945 25.5612V14.8133Z" fill="#FFD9BB"/>
<path d="M42.798 46.7644C44.0942 46.7644 45.1484 45.7099 45.1484 44.4138C45.1484 43.1178 44.0941 42.0634 42.798 42.0634H36.326C35.03 42.0634 33.9756 43.1178 33.9756 44.4138C33.9756 45.7099 35.03 46.7644 36.326 46.7644H42.798ZM35.4405 44.4138C35.4405 43.9255 35.8377 43.5283 36.326 43.5283H42.798C43.2863 43.5283 43.6835 43.9255 43.6835 44.4138C43.6835 44.9021 43.2863 45.2993 42.798 45.2993H36.326C35.8377 45.2994 35.4405 44.9021 35.4405 44.4138Z" fill="#FFD9BB"/>
<path d="M25 22.4096C23.7039 22.4096 22.6496 23.464 22.6496 24.76C22.6496 26.0561 23.704 27.1105 25 27.1105C26.296 27.1105 27.3504 26.0561 27.3504 24.76C27.3505 23.464 26.2961 22.4096 25 22.4096ZM25 25.6456C24.5117 25.6456 24.1145 25.2484 24.1145 24.7601C24.1145 24.2719 24.5117 23.8747 25 23.8747C25.4882 23.8747 25.8854 24.2719 25.8854 24.7601C25.8855 25.2484 25.4882 25.6456 25 25.6456Z" fill="#FFD9BB"/>
<path d="M27.3506 16.8851C29.4466 15.9138 30.7336 13.751 30.5729 11.4251C30.3825 8.66161 28.1548 6.43397 25.3916 6.24323C23.8486 6.13629 22.3167 6.67901 21.1888 7.73184C20.0607 8.78467 19.4136 10.2734 19.4136 11.8162C19.4136 13.1122 20.468 14.1666 21.764 14.1666C23.0601 14.1666 24.1144 13.1122 24.1144 11.8162C24.1144 11.5644 24.2119 11.3405 24.3962 11.1685C24.5773 10.9996 24.8167 10.9162 25.0678 10.933C25.4884 10.962 25.8541 11.3279 25.8831 11.7486C25.9097 12.1342 25.6899 12.4912 25.3357 12.6365C23.7039 13.3066 22.6496 14.8899 22.6496 16.6702V18.2882C22.6496 19.5842 23.704 20.6387 25.0001 20.6387C26.2962 20.6387 27.3505 19.5842 27.3505 18.2882V16.8851H27.3506ZM26.565 15.63C26.1522 15.7996 25.8856 16.2079 25.8856 16.6702V18.2882C25.8856 18.7765 25.4884 19.1737 25.0002 19.1737C24.5118 19.1737 24.1146 18.7765 24.1146 18.2882V16.6702C24.1146 15.4865 24.8124 14.4352 25.8923 13.9916C26.8312 13.6062 27.4149 12.6642 27.3448 11.6477C27.2659 10.5061 26.3101 9.55017 25.1678 9.47155C25.112 9.46774 25.0564 9.46579 25.0012 9.46579C24.4014 9.46579 23.837 9.6868 23.397 10.0974C22.9151 10.547 22.6497 11.1574 22.6497 11.8163C22.6497 12.3045 22.2525 12.7017 21.7642 12.7017C21.276 12.7017 20.8788 12.3045 20.8788 11.8163C20.8788 10.6781 21.3562 9.57976 22.1885 8.80284C23.0207 8.02621 24.1514 7.62607 25.2909 7.70489C27.3285 7.84533 28.9711 9.48815 29.1116 11.526C29.2342 13.3047 28.2109 14.9541 26.565 15.63Z" fill="#FFD9BB"/>
</g>
<defs>
<clipPath id="clip0">
<rect width="50" height="50" fill="white"/>
</clipPath>
</defs>
</svg>
