<svg width="20" height="20" viewBox="0 0 20 20" fill="none" xmlns="http://www.w3.org/2000/svg">
<g clip-path="url(#clip0)">
<path d="M19.8359 3.78125C19.6835 3.59766 19.4491 3.50781 19.2187 3.53125C19.3085 3.33984 19.3906 3.14453 19.4531 2.94141C19.5429 2.66406 19.4491 2.35547 19.2187 2.17187C18.9921 1.98828 18.6679 1.96875 18.4179 2.11719C17.8398 2.46094 17.2226 2.71484 16.5741 2.87891C15.7538 2.15234 14.6718 1.74219 13.5741 1.74219C11.082 1.74219 9.05461 3.76953 9.05461 6.26172C9.05461 6.28906 9.05461 6.3164 9.05461 6.34375C6.52336 6 4.1718 4.6875 2.55071 2.69922C2.40227 2.51953 2.17571 2.42187 1.94524 2.44141C1.71477 2.46094 1.50383 2.58984 1.39055 2.78906C0.988207 3.47656 0.777269 4.26172 0.777269 5.0625C0.777269 5.76953 0.941332 6.45703 1.24993 7.08203C1.19914 7.09765 1.14836 7.11718 1.10149 7.14453C0.886644 7.26562 0.749925 7.49609 0.746019 7.74218C0.746019 7.76562 0.746019 7.78515 0.746019 7.80859C0.746019 9.09375 1.30461 10.3164 2.24211 11.1641C2.09368 11.3477 2.04289 11.6016 2.11711 11.8281C2.50383 13.043 3.39446 14.0273 4.52727 14.5508C3.62102 14.9648 2.63274 15.1836 1.61711 15.1836C1.33977 15.1836 1.06243 15.168 0.792894 15.1367C0.464769 15.0976 0.156175 15.2891 0.0428941 15.6016C-0.0703871 15.9141 0.0468004 16.2578 0.32805 16.4375C2.19133 17.6328 4.34368 18.2617 6.55461 18.2617C10.9023 18.2617 13.621 16.2109 15.1406 14.4883C17.0273 12.3477 18.1132 9.51171 18.1132 6.70703C18.1132 6.65625 18.1132 6.60937 18.1132 6.55859C18.8007 6.01562 19.3945 5.36719 19.8866 4.63281C20.0546 4.37109 20.0351 4.01953 19.8359 3.78125ZM17.4648 6.04297C17.3632 6.12109 17.3007 6.24219 17.3046 6.375C17.3085 6.48437 17.3085 6.59375 17.3085 6.70312C17.3085 9.3164 16.2968 11.9609 14.5351 13.957C13.1327 15.5586 10.6015 17.4609 6.55461 17.4609C4.62102 17.4609 2.73821 16.9414 1.07805 15.9609C1.25774 15.9726 1.43743 15.9805 1.61711 15.9805C3.08196 15.9805 4.49993 15.5742 5.72649 14.8086C5.86321 14.7227 5.93352 14.5625 5.90618 14.4023C5.87883 14.2422 5.75774 14.1172 5.60149 14.082C4.36711 13.8047 3.35149 12.9102 2.9218 11.7266C2.98821 11.7383 3.05461 11.7461 3.12102 11.75C3.30852 11.7695 3.48039 11.6562 3.53899 11.4766C3.59758 11.3008 3.52336 11.1055 3.36321 11.0078C2.26555 10.3555 1.57414 9.17187 1.53899 7.90625C1.69524 7.98437 1.85539 8.05468 2.01946 8.10937C2.18743 8.16797 2.37883 8.10547 2.48039 7.95703C2.58196 7.80859 2.57024 7.60937 2.45305 7.47265C1.88274 6.80078 1.56633 5.94531 1.56633 5.05859C1.56633 4.44141 1.71868 3.83594 2.00774 3.29687C3.86321 5.51562 6.56633 6.93359 9.44133 7.18359C9.56243 7.19531 9.67961 7.14844 9.76164 7.0625C9.84368 6.97656 9.88664 6.85547 9.87102 6.73437C9.85149 6.57422 9.83977 6.41406 9.83977 6.2539C9.83977 4.19922 11.5116 2.53125 13.5624 2.53125C14.5273 2.53125 15.4804 2.91797 16.1679 3.59375C16.2656 3.6875 16.4023 3.72656 16.5312 3.69922C17.2538 3.53906 17.9491 3.27734 18.6015 2.91797C18.4452 3.32422 18.2148 3.69531 17.9257 4.02344C17.8085 4.15625 17.7929 4.35156 17.8866 4.5C17.9804 4.64844 18.164 4.71875 18.3359 4.66797C18.5702 4.60156 18.8046 4.51953 19.0312 4.42969C18.6015 5.05078 18.0702 5.58984 17.4648 6.04297Z" fill="#FB6E01" stroke="#FB6E01" stroke-width="0.5" stroke-miterlimit="10"/>
</g>
<defs>
<clipPath id="clip0">
<rect width="20" height="20" fill="white"/>
</clipPath>
</defs>
</svg>
